<svg xmlns="http://www.w3.org/2000/svg" viewBox="0 0 22 22">
	<path fill="#fff" d="M15.3,8.1c0,0-0.1,0-0.1,0c0-0.1,0-0.1,0-0.2C15.2,3.5,11.9,0,8,0S0.8,3.5,0.8,7.8c0,0.1,0,0.1,0,0.2    c-0.1,0-0.1,0-0.2,0c-0.6,0.2-0.8,1.1-0.5,2.1c0.3,1,1,1.6,1.6,1.5c0.2,0.4,0.4,0.8,0.7,1.1c0.5,2.9,2.8,5.8,5.6,5.8    c2.8,0,5.1-3,5.6-5.8c0.3-0.3,0.5-0.7,0.7-1.1c0.6,0.1,1.2-0.5,1.5-1.5C16.1,9.2,15.9,8.2,15.3,8.1z"></path>
	<path fill="#242528" d="M9.9,9l-0.3,1L9,10.6c-0.1,0.2-0.3,0.4-0.4,0.5c-0.2,0.1-0.4,0.2-0.6,0.2c-0.5,0-0.9-0.2-1.1-0.6l-0.6-0.5     L6,9l0.4-0.1c0,0.1,0.1,0.2,0.1,0.2C6.6,9.5,6.8,9.8,7,9.9c0.2,0.1,0.5,0.2,0.9,0.2c0.5,0,0.8-0.1,1-0.2c0.2-0.1,0.4-0.4,0.5-0.7     c0-0.1,0.1-0.1,0.1-0.2L9.9,9z"></path>
	<path fill="#fff" d="M7.9,11.5c-0.6,0-1-0.3-1.3-0.7l-0.6-0.5c0,0-0.1-0.1-0.1-0.1l-0.3-1c0-0.1,0-0.1,0-0.2     c0-0.1,0.1-0.1,0.2-0.1l0.4-0.1c0.1,0,0.2,0,0.3,0.1l0.1,0.2C6.8,9.5,7,9.6,7.1,9.7c0.1,0.1,0.3,0.1,0.8,0.1     c0.6,0,0.8-0.1,0.9-0.1C8.9,9.6,9,9.5,9.2,9.1l0.1-0.2c0-0.1,0.2-0.2,0.3-0.1L10,8.8c0.1,0,0.1,0.1,0.2,0.1c0,0.1,0,0.1,0,0.2     l-0.3,1c0,0,0,0.1-0.1,0.1l-0.6,0.5c-0.1,0.2-0.3,0.4-0.5,0.5C8.5,11.4,8.2,11.5,7.9,11.5z M6.5,9.9L7,10.4c0,0,0,0,0.1,0.1     C7.3,10.8,7.5,11,7.9,11c0.2,0,0.4,0,0.5-0.1c0.1-0.1,0.3-0.2,0.3-0.4c0,0,0-0.1,0.1-0.1l0.6-0.5l0.1-0.3C9.4,9.9,9.2,10,9,10.1     c-0.2,0.1-0.6,0.2-1.1,0.2c-0.5,0-0.8-0.1-1.1-0.2C6.7,10,6.5,9.9,6.4,9.6L6.5,9.9z"></path>
	<path fill="#242528" d="M8,12.2c0.4-0.2,1.2-0.6,2.3-1.1c0.1,0,0.2-0.1,0.4-0.2c0.4-0.4,0.7-0.7,1-0.9c0.3-0.2,0.4-0.3,0.6-0.3      c0.1,0,0.3,0,0.3,0.1c0.1,0.1,0.1,0.2,0.1,0.4c0,0.2,0,0.4-0.1,0.7c0.3,0.4,0.4,0.6,0.4,0.8c0,0.2,0,0.3-0.1,0.3      c-0.1,0.1-0.2,0.1-0.4,0.1c-0.1,0-0.2,0-0.4-0.1c-0.2-0.1-0.4-0.2-0.6-0.4c-0.6,0.1-1.5,0.5-2.7,1.1c0.2,0.1,0.3,0.2,0.3,0.2      c0.4,0.2,0.9,0.5,1.5,0.9c0.1,0,0.2,0.2,0.5,0.3c1.2,0.1,1.9,0.5,1.9,0.9c0,0.3-0.3,0.5-1,0.6c-0.3,0.4-0.6,0.6-0.8,0.6      c-0.2,0-0.5-0.3-0.7-1c0-0.1-0.1-0.2-0.1-0.3c-1-0.8-1.8-1.4-2.6-1.8c-0.9,0.5-1.8,1.2-2.6,1.9C5.2,16,5,16.4,4.6,16.4      c-0.2,0-0.5-0.2-0.8-0.7c-0.7,0-1-0.2-1-0.6c0-0.3,0.1-0.5,0.4-0.6c0.3-0.1,0.8-0.3,1.6-0.4c0.6-0.5,1.4-0.9,2.2-1.4      c-1.2-0.6-2.1-0.9-2.8-1.1C4,11.8,3.9,12,3.7,12c-0.1,0.1-0.3,0.1-0.4,0.1c-0.2,0-0.3,0-0.4-0.1c-0.1-0.1-0.1-0.2-0.1-0.3      c0-0.1,0.2-0.4,0.5-0.8c-0.1-0.3-0.1-0.5-0.1-0.6c0-0.2,0-0.4,0.1-0.5c0.1-0.1,0.2-0.1,0.4-0.1C3.8,9.7,4,9.8,4.2,10      c0.3,0.2,0.6,0.5,0.9,0.9C6,11.2,6.9,11.6,8,12.2z"></path>
	<path fill="#fff" d="M11.3,16.6c-0.5,0-0.8-0.6-1-1.1c0-0.1,0-0.1-0.1-0.2c-0.9-0.7-1.7-1.3-2.4-1.7c-0.8,0.5-1.6,1.1-2.4,1.7      c-0.1,0.9-0.5,1.3-0.9,1.3c-0.3,0-0.6-0.2-0.9-0.7c-1,0-1.2-0.5-1.2-0.8c0-0.4,0.2-0.7,0.5-0.8c0.3-0.1,0.8-0.3,1.7-0.4      c0.5-0.4,1.1-0.8,1.8-1.1c-0.9-0.4-1.6-0.7-2.2-0.8c-0.2,0.1-0.3,0.2-0.4,0.3c-0.4,0.2-0.8,0.2-1.1,0c-0.1-0.1-0.2-0.2-0.2-0.5      c0-0.1,0.1-0.3,0.4-0.8c-0.1-0.2-0.1-0.4-0.1-0.6C2.9,10,3,9.8,3.1,9.7c0.2-0.2,0.6-0.4,1.3,0.1C4.7,10,5,10.3,5.3,10.7      C6.1,11,7,11.4,8,11.9c0.5-0.2,1.2-0.6,2.3-1c0,0,0.2-0.1,0.4-0.2c0.4-0.4,0.7-0.7,1-0.9c0.3-0.2,0.5-0.4,0.7-0.4      c0.3,0,0.4,0.1,0.5,0.2C13,9.8,13,10,13,10.2c0,0.2,0,0.3-0.1,0.6c0.3,0.4,0.4,0.7,0.4,0.9c0,0.2-0.1,0.4-0.2,0.5      c-0.1,0.1-0.3,0.2-0.5,0.2c-0.1,0-0.3,0-0.5-0.2c-0.2-0.1-0.3-0.2-0.6-0.3c-0.5,0.1-1.2,0.4-2.1,0.8c0.4,0.2,0.9,0.5,1.5,0.9      c0.1,0,0.2,0.1,0.5,0.3c0.6,0.1,2,0.3,2,1.2c0,0.4-0.4,0.7-1.1,0.9C11.9,16.4,11.6,16.6,11.3,16.6z M7.9,13c0,0,0.1,0,0.1,0      c0.8,0.4,1.7,1,2.6,1.8c0,0,0.1,0.1,0.1,0.1c0.1,0.1,0.1,0.2,0.1,0.3c0.3,0.8,0.5,0.8,0.5,0.8c0,0,0.2,0,0.6-0.5      c0,0,0.1-0.1,0.2-0.1c0.5-0.1,0.8-0.2,0.8-0.4c0-0.3-0.6-0.6-1.6-0.7c0,0-0.1,0-0.1,0c-0.3-0.2-0.4-0.3-0.5-0.3      c-0.6-0.4-1.1-0.7-1.5-0.9L8.8,13c-0.1,0-0.1-0.1-0.1-0.2c0-0.1,0.1-0.2,0.1-0.2c1.2-0.6,2.1-1,2.8-1.1c0.1,0,0.1,0,0.2,0      c0.3,0.2,0.5,0.3,0.6,0.4c0.2,0.1,0.3,0.1,0.3,0.1c0.1,0,0.2,0,0.2,0c0,0,0-0.1,0-0.2c0,0,0-0.2-0.4-0.7c0-0.1-0.1-0.1-0.1-0.2      c0-0.3,0.1-0.5,0.1-0.6c0-0.2,0-0.2-0.1-0.3c0,0,0,0-0.1,0c0,0-0.1,0-0.4,0.3c-0.2,0.2-0.6,0.5-1,0.9c0,0-0.1,0-0.1,0.1      c-0.2,0.1-0.4,0.2-0.4,0.2c-1.1,0.5-1.9,0.8-2.3,1.1c-0.1,0-0.2,0-0.2,0c-1.1-0.6-2-1-2.8-1.3c0,0-0.1,0-0.1-0.1      c-0.3-0.4-0.6-0.7-0.9-0.9C3.8,9.9,3.7,9.9,3.6,9.9c-0.1,0-0.2,0-0.2,0.1c0,0-0.1,0.1-0.1,0.3c0,0.1,0,0.3,0.1,0.6      c0,0.1,0,0.1,0,0.2C3.1,11.6,3,11.7,3,11.7c0,0.1,0,0.1,0,0.1c0.1,0.1,0.3,0.1,0.5,0c0.1-0.1,0.3-0.2,0.4-0.3      c0.1,0,0.1-0.1,0.2-0.1C5,11.6,6,11.9,7.2,12.5c0.1,0,0.1,0.1,0.1,0.2c0,0.1,0,0.2-0.1,0.2c-0.8,0.5-1.6,0.9-2.2,1.4      c0,0-0.1,0-0.1,0c-1,0.1-1.4,0.3-1.6,0.4C3.1,14.8,3,14.9,3,15.1c0,0.2,0.3,0.3,0.8,0.3c0.1,0,0.2,0,0.2,0.1      c0.3,0.5,0.5,0.5,0.6,0.5c0.2,0,0.4-0.3,0.5-0.9c0-0.1,0-0.1,0.1-0.1c0.8-0.7,1.7-1.4,2.7-1.9C7.8,13.1,7.9,13,7.9,13z"></path>
	<path fill="#242528" d="M10.5,2.4C9.9,1.9,9,1.6,7.9,1.6S6,1.9,5.3,2.4c-0.7,0.6-1,1.3-1,2.2c0,0.8,0.1,1.4,0.3,1.7      c0.3,0.5,0.4,0.8,0.4,1l0.1,0.9l1.4,0.7l0.2,0.5c0.1,0,0.3,0.1,0.5,0.1c0.2,0,0.4,0,0.6,0c0.4,0,0.8,0,1.1-0.1l0.2-0.5l1.4-0.7      l0.1-0.9c0-0.2,0.1-0.3,0.1-0.4c0.4-0.8,0.7-1.5,0.7-2.3C11.5,3.8,11.2,3,10.5,2.4z M6.4,7.3c-0.6,0-0.9-0.3-0.9-1      c0-0.3,0.1-0.6,0.2-0.7c0.1-0.2,0.4-0.2,0.7-0.2c0.6,0,0.8,0.3,0.8,0.9C7.3,7,7,7.3,6.4,7.3z M8.2,8.7c-0.1,0-0.2,0-0.2-0.1      C7.9,8.7,7.8,8.7,7.7,8.7c-0.1,0-0.2,0-0.3-0.1C7.4,8.6,7.3,8.5,7.3,8.4c0-0.1,0.1-0.2,0.2-0.4C7.7,7.8,7.8,7.6,8,7.4      C8.1,7.6,8.2,7.8,8.4,8c0.2,0.2,0.2,0.3,0.2,0.4C8.6,8.6,8.5,8.7,8.2,8.7z M9.5,7.3c-0.6,0-0.9-0.3-0.9-1c0-0.6,0.3-0.9,0.9-0.9      c0.3,0,0.5,0.1,0.6,0.2c0.1,0.1,0.2,0.4,0.2,0.7C10.3,7,10,7.3,9.5,7.3z"></path>
	<path fill="#fff" d="M7.9,9.8c-0.2,0-0.4,0-0.6,0c-0.2,0-0.4-0.1-0.5-0.1c-0.1,0-0.1-0.1-0.2-0.1L6.5,9.1L5.1,8.4      C5,8.4,5,8.3,5,8.3L4.8,7.4c0-0.1-0.1-0.3-0.4-0.9c-0.2-0.4-0.4-1-0.4-1.8c0-1,0.4-1.8,1.1-2.4c0.7-0.6,1.6-0.9,2.8-0.9      c1.1,0,2.1,0.3,2.8,0.9l0,0c0.7,0.6,1.1,1.4,1.1,2.4c0,0.8-0.2,1.6-0.7,2.4c0,0,0,0.1-0.1,0.3l-0.1,0.9c0,0.1-0.1,0.2-0.1,0.2      L9.4,9.1L9.2,9.5c0,0.1-0.1,0.1-0.2,0.1C8.8,9.8,8.4,9.8,7.9,9.8z M7.1,9.2c0.1,0,0.2,0,0.3,0.1c0.2,0,0.4,0,0.6,0      c0.4,0,0.6,0,0.9-0.1L9,8.8C9,8.8,9,8.7,9.1,8.7L10.4,8l0.1-0.7c0-0.2,0.1-0.3,0.1-0.4c0.4-0.7,0.6-1.5,0.6-2.2      c0-0.8-0.3-1.5-0.9-2C9.7,2.1,8.9,1.8,7.9,1.8c-1,0-1.8,0.3-2.4,0.8c-0.6,0.5-0.9,1.2-0.9,2c0,0.7,0.1,1.3,0.3,1.6      c0.4,0.7,0.5,0.9,0.5,1.1L5.4,8l1.3,0.6c0.1,0,0.1,0.1,0.1,0.1L7.1,9.2z M8.2,9C8.1,9,8.1,9,8,8.9C7.7,9,7.4,9,7.3,8.8      C7.2,8.8,7.1,8.6,7.1,8.4c0-0.2,0.1-0.4,0.3-0.6c0.1-0.1,0.2-0.3,0.4-0.5c0-0.1,0.1-0.1,0.2-0.1c0,0,0,0,0,0      c0.1,0,0.2,0,0.2,0.1c0.1,0.2,0.2,0.4,0.4,0.5C8.8,8,8.8,8.2,8.8,8.4c0,0.2-0.1,0.3-0.2,0.4C8.6,8.9,8.4,9,8.2,9z M8,8.4      c0,0,0.1,0,0.1,0c0.1,0,0.1,0,0.1,0c0.1,0,0.1,0,0.1,0c0,0,0,0,0-0.1l0,0c0,0,0-0.1-0.2-0.3C8.1,8,8,8,8,7.9      C7.9,8,7.8,8,7.8,8.1C7.6,8.3,7.6,8.4,7.6,8.4c0,0.1,0,0.1,0.1,0.1c0,0,0,0,0.1,0C7.9,8.4,7.9,8.4,8,8.4z M9.5,7.6      c-0.4,0-1.1-0.2-1.1-1.2c0-0.8,0.4-1.2,1.1-1.2c0.3,0,0.6,0.1,0.8,0.3c0.2,0.2,0.3,0.5,0.3,0.8C10.6,7.4,9.9,7.6,9.5,7.6z       M9.5,5.7C9,5.7,8.9,5.9,8.9,6.3c0,0.6,0.3,0.7,0.6,0.7c0.3,0,0.6-0.1,0.6-0.8c0-0.2,0-0.4-0.1-0.5C9.9,5.7,9.7,5.7,9.5,5.7z       M6.4,7.6C6,7.6,5.3,7.4,5.3,6.3c0-0.4,0.1-0.7,0.3-0.9c0.2-0.2,0.5-0.3,0.8-0.3c0.7,0,1.1,0.4,1.1,1.1C7.5,7.4,6.8,7.6,6.4,7.6      z M6.5,5.7C6.2,5.7,6.1,5.7,6,5.8C5.9,5.9,5.8,6.1,5.8,6.3c0,0.6,0.3,0.7,0.6,0.7C6.7,7.1,7,7,7,6.3C7,5.8,6.9,5.7,6.5,5.7z"></path>
</svg>